<mxfile host="app.diagrams.net" agent="Mozilla/5.0 (Windows NT 10.0; Win64; x64) AppleWebKit/537.36 (KHTML, like Gecko) Chrome/131.0.0.0 Safari/537.36" version="25.0.1">
  <diagram name="Page-1" id="08y19fCS844kZCSDfOC5">
    <mxGraphModel grid="1" page="1" gridSize="10" guides="1" tooltips="1" connect="1" arrows="1" fold="1" pageScale="1" pageWidth="827" pageHeight="1169" math="0" shadow="0">
      <root>
        <mxCell id="0" />
        <mxCell id="1" parent="0" />
        <mxCell id="PnbgaBp97m9jd3xf3PGs-12" value="" style="rounded=0;whiteSpace=wrap;html=1;fillColor=none;" vertex="1" parent="1">
          <mxGeometry x="1320" y="40" width="480" height="480" as="geometry" />
        </mxCell>
        <mxCell id="PnbgaBp97m9jd3xf3PGs-28" value="" style="rounded=0;whiteSpace=wrap;html=1;fillColor=none;" vertex="1" parent="1">
          <mxGeometry x="1340" y="125" width="440" height="275" as="geometry" />
        </mxCell>
        <mxCell id="aHzojdn0D4wjV4ljBGkD-2" value="" style="rounded=0;whiteSpace=wrap;html=1;fillColor=none;" vertex="1" parent="1">
          <mxGeometry x="40" y="40" width="480" height="480" as="geometry" />
        </mxCell>
        <mxCell id="aHzojdn0D4wjV4ljBGkD-19" value="" style="rounded=0;whiteSpace=wrap;html=1;fillColor=none;" vertex="1" parent="1">
          <mxGeometry x="60" y="130" width="440" height="370" as="geometry" />
        </mxCell>
        <mxCell id="aHzojdn0D4wjV4ljBGkD-3" value="Logo?" style="rounded=0;whiteSpace=wrap;html=1;" vertex="1" parent="1">
          <mxGeometry x="50" y="50" width="100" height="60" as="geometry" />
        </mxCell>
        <mxCell id="aHzojdn0D4wjV4ljBGkD-5" value="&lt;u&gt;Login Page&lt;/u&gt;" style="text;strokeColor=none;fillColor=none;html=1;fontSize=24;fontStyle=1;verticalAlign=middle;align=center;" vertex="1" parent="1">
          <mxGeometry x="190" y="-30" width="160" height="40" as="geometry" />
        </mxCell>
        <mxCell id="aHzojdn0D4wjV4ljBGkD-6" value="&lt;u&gt;Login&lt;/u&gt;" style="text;strokeColor=none;fillColor=none;html=1;fontSize=24;fontStyle=1;verticalAlign=middle;align=center;" vertex="1" parent="1">
          <mxGeometry x="90" y="150" width="100" height="40" as="geometry" />
        </mxCell>
        <mxCell id="aHzojdn0D4wjV4ljBGkD-10" value="" style="rounded=0;whiteSpace=wrap;html=1;fillColor=none;" vertex="1" parent="1">
          <mxGeometry x="80" y="240" width="360" height="40" as="geometry" />
        </mxCell>
        <mxCell id="aHzojdn0D4wjV4ljBGkD-11" value="Username" style="text;html=1;align=center;verticalAlign=middle;whiteSpace=wrap;rounded=0;" vertex="1" parent="1">
          <mxGeometry x="80" y="210" width="60" height="30" as="geometry" />
        </mxCell>
        <mxCell id="aHzojdn0D4wjV4ljBGkD-14" value="" style="rounded=0;whiteSpace=wrap;html=1;fillColor=none;" vertex="1" parent="1">
          <mxGeometry x="80" y="350" width="360" height="40" as="geometry" />
        </mxCell>
        <mxCell id="aHzojdn0D4wjV4ljBGkD-15" value="Password" style="text;html=1;align=center;verticalAlign=middle;whiteSpace=wrap;rounded=0;" vertex="1" parent="1">
          <mxGeometry x="80" y="320" width="60" height="30" as="geometry" />
        </mxCell>
        <mxCell id="aHzojdn0D4wjV4ljBGkD-17" value="Login" style="rounded=1;whiteSpace=wrap;html=1;" vertex="1" parent="1">
          <mxGeometry x="140" y="440" width="120" height="40" as="geometry" />
        </mxCell>
        <mxCell id="aHzojdn0D4wjV4ljBGkD-18" value="Create New Account" style="rounded=1;whiteSpace=wrap;html=1;" vertex="1" parent="1">
          <mxGeometry x="294" y="440" width="120" height="40" as="geometry" />
        </mxCell>
        <mxCell id="aHzojdn0D4wjV4ljBGkD-20" value="" style="rounded=0;whiteSpace=wrap;html=1;fillColor=none;" vertex="1" parent="1">
          <mxGeometry x="680" y="40" width="480" height="480" as="geometry" />
        </mxCell>
        <mxCell id="aHzojdn0D4wjV4ljBGkD-21" value="&lt;u&gt;New User Page&lt;/u&gt;" style="text;strokeColor=none;fillColor=none;html=1;fontSize=24;fontStyle=1;verticalAlign=middle;align=center;" vertex="1" parent="1">
          <mxGeometry x="830" y="-30" width="160" height="40" as="geometry" />
        </mxCell>
        <mxCell id="aHzojdn0D4wjV4ljBGkD-22" value="Logo?" style="rounded=0;whiteSpace=wrap;html=1;" vertex="1" parent="1">
          <mxGeometry x="690" y="50" width="100" height="60" as="geometry" />
        </mxCell>
        <mxCell id="aHzojdn0D4wjV4ljBGkD-23" value="Website Name" style="text;strokeColor=none;fillColor=none;html=1;fontSize=24;fontStyle=1;verticalAlign=middle;align=center;" vertex="1" parent="1">
          <mxGeometry x="150" y="60" width="270" height="40" as="geometry" />
        </mxCell>
        <mxCell id="aHzojdn0D4wjV4ljBGkD-24" value="Website Name" style="text;strokeColor=none;fillColor=none;html=1;fontSize=24;fontStyle=1;verticalAlign=middle;align=center;" vertex="1" parent="1">
          <mxGeometry x="790" y="60" width="270" height="40" as="geometry" />
        </mxCell>
        <mxCell id="PnbgaBp97m9jd3xf3PGs-1" value="" style="rounded=0;whiteSpace=wrap;html=1;fillColor=none;" vertex="1" parent="1">
          <mxGeometry x="700" y="130" width="440" height="370" as="geometry" />
        </mxCell>
        <mxCell id="PnbgaBp97m9jd3xf3PGs-2" value="&lt;u&gt;Create New User&lt;/u&gt;" style="text;strokeColor=none;fillColor=none;html=1;fontSize=24;fontStyle=1;verticalAlign=middle;align=center;" vertex="1" parent="1">
          <mxGeometry x="720" y="150" width="193" height="40" as="geometry" />
        </mxCell>
        <mxCell id="PnbgaBp97m9jd3xf3PGs-3" value="" style="rounded=0;whiteSpace=wrap;html=1;fillColor=none;" vertex="1" parent="1">
          <mxGeometry x="720" y="240" width="360" height="20" as="geometry" />
        </mxCell>
        <mxCell id="PnbgaBp97m9jd3xf3PGs-4" value="Username" style="text;html=1;align=center;verticalAlign=middle;whiteSpace=wrap;rounded=0;" vertex="1" parent="1">
          <mxGeometry x="720" y="210" width="60" height="30" as="geometry" />
        </mxCell>
        <mxCell id="PnbgaBp97m9jd3xf3PGs-5" value="" style="rounded=0;whiteSpace=wrap;html=1;fillColor=none;" vertex="1" parent="1">
          <mxGeometry x="720" y="300" width="360" height="20" as="geometry" />
        </mxCell>
        <mxCell id="PnbgaBp97m9jd3xf3PGs-6" value="Password&lt;span style=&quot;color: rgba(0, 0, 0, 0); font-family: monospace; font-size: 0px; text-align: start; text-wrap-mode: nowrap;&quot;&gt;%3CmxGraphModel%3E%3Croot%3E%3CmxCell%20id%3D%220%22%2F%3E%3CmxCell%20id%3D%221%22%20parent%3D%220%22%2F%3E%3CmxCell%20id%3D%222%22%20value%3D%22%22%20style%3D%22rounded%3D0%3BwhiteSpace%3Dwrap%3Bhtml%3D1%3BfillColor%3Dnone%3B%22%20vertex%3D%221%22%20parent%3D%221%22%3E%3CmxGeometry%20x%3D%22720%22%20y%3D%22240%22%20width%3D%22360%22%20height%3D%2220%22%20as%3D%22geometry%22%2F%3E%3C%2FmxCell%3E%3CmxCell%20id%3D%223%22%20value%3D%22Username%22%20style%3D%22text%3Bhtml%3D1%3Balign%3Dcenter%3BverticalAlign%3Dmiddle%3BwhiteSpace%3Dwrap%3Brounded%3D0%3B%22%20vertex%3D%221%22%20parent%3D%221%22%3E%3CmxGeometry%20x%3D%22720%22%20y%3D%22210%22%20width%3D%2260%22%20height%3D%2230%22%20as%3D%22geometry%22%2F%3E%3C%2FmxCell%3E%3C%2Froot%3E%3C%2FmxGraphModel%3E&lt;/span&gt;" style="text;html=1;align=center;verticalAlign=middle;whiteSpace=wrap;rounded=0;" vertex="1" parent="1">
          <mxGeometry x="720" y="270" width="60" height="30" as="geometry" />
        </mxCell>
        <mxCell id="PnbgaBp97m9jd3xf3PGs-7" value="" style="rounded=0;whiteSpace=wrap;html=1;fillColor=none;" vertex="1" parent="1">
          <mxGeometry x="720" y="360" width="360" height="20" as="geometry" />
        </mxCell>
        <mxCell id="PnbgaBp97m9jd3xf3PGs-8" value="Confirm Password" style="text;html=1;align=center;verticalAlign=middle;whiteSpace=wrap;rounded=0;" vertex="1" parent="1">
          <mxGeometry x="720" y="330" width="110" height="30" as="geometry" />
        </mxCell>
        <mxCell id="PnbgaBp97m9jd3xf3PGs-9" value="" style="rounded=0;whiteSpace=wrap;html=1;fillColor=none;" vertex="1" parent="1">
          <mxGeometry x="720" y="420" width="360" height="20" as="geometry" />
        </mxCell>
        <mxCell id="PnbgaBp97m9jd3xf3PGs-10" value="Meta-Wallet Details" style="text;html=1;align=center;verticalAlign=middle;whiteSpace=wrap;rounded=0;" vertex="1" parent="1">
          <mxGeometry x="720" y="390" width="90" height="30" as="geometry" />
        </mxCell>
        <mxCell id="PnbgaBp97m9jd3xf3PGs-11" value="Create New Account" style="rounded=1;whiteSpace=wrap;html=1;" vertex="1" parent="1">
          <mxGeometry x="860" y="450" width="120" height="40" as="geometry" />
        </mxCell>
        <mxCell id="PnbgaBp97m9jd3xf3PGs-13" value="&lt;u&gt;Landing Page&lt;/u&gt;" style="text;strokeColor=none;fillColor=none;html=1;fontSize=24;fontStyle=1;verticalAlign=middle;align=center;" vertex="1" parent="1">
          <mxGeometry x="1320" y="-30" width="480" height="40" as="geometry" />
        </mxCell>
        <mxCell id="PnbgaBp97m9jd3xf3PGs-14" value="Logo?" style="rounded=0;whiteSpace=wrap;html=1;" vertex="1" parent="1">
          <mxGeometry x="1330" y="50" width="100" height="60" as="geometry" />
        </mxCell>
        <mxCell id="PnbgaBp97m9jd3xf3PGs-15" value="Website Name" style="text;strokeColor=none;fillColor=none;html=1;fontSize=24;fontStyle=1;verticalAlign=middle;align=center;" vertex="1" parent="1">
          <mxGeometry x="1430" y="60" width="270" height="40" as="geometry" />
        </mxCell>
        <mxCell id="PnbgaBp97m9jd3xf3PGs-17" value="&lt;u&gt;Public Elections&lt;/u&gt;" style="text;strokeColor=none;fillColor=none;html=1;fontSize=24;fontStyle=1;verticalAlign=middle;align=center;" vertex="1" parent="1">
          <mxGeometry x="1360" y="150" width="193" height="40" as="geometry" />
        </mxCell>
        <mxCell id="PnbgaBp97m9jd3xf3PGs-27" value="&lt;ul&gt;&lt;li&gt;&lt;b&gt;&lt;font style=&quot;font-size: 18px;&quot;&gt;Example Election A&lt;/font&gt;&lt;/b&gt;&lt;/li&gt;&lt;/ul&gt;" style="text;html=1;align=left;verticalAlign=middle;whiteSpace=wrap;rounded=0;strokeColor=#000000;" vertex="1" parent="1">
          <mxGeometry x="1360" y="200" width="320" height="40" as="geometry" />
        </mxCell>
        <mxCell id="PnbgaBp97m9jd3xf3PGs-29" value="&lt;ul&gt;&lt;li&gt;&lt;b&gt;&lt;font style=&quot;font-size: 18px;&quot;&gt;Example Election B&lt;/font&gt;&lt;/b&gt;&lt;span style=&quot;color: rgba(0, 0, 0, 0); font-family: monospace; font-size: 0px; text-wrap-mode: nowrap;&quot;&gt;%3CmxGraphModel%3E%3Croot%3E%3CmxCell%20id%3D%220%22%2F%3E%3CmxCell%20id%3D%221%22%20parent%3D%220%22%2F%3E%3CmxCell%20id%3D%222%22%20value%3D%22%26lt%3Bul%26gt%3B%26lt%3Bli%26gt%3B%26lt%3Bb%26gt%3B%26lt%3Bfont%20style%3D%26quot%3Bfont-size%3A%2018px%3B%26quot%3B%26gt%3BExample%20Vote%20A%26lt%3B%2Ffont%26gt%3B%26lt%3B%2Fb%26gt%3B%26lt%3B%2Fli%26gt%3B%26lt%3B%2Ful%26gt%3B%22%20style%3D%22text%3Bhtml%3D1%3Balign%3Dleft%3BverticalAlign%3Dmiddle%3BwhiteSpace%3Dwrap%3Brounded%3D0%3B%22%20vertex%3D%221%22%20parent%3D%221%22%3E%3CmxGeometry%20x%3D%221360%22%20y%3D%22200%22%20width%3D%22400%22%20height%3D%2240%22%20as%3D%22geometry%22%2F%3E%3C%2FmxCell%3E%3C%2Froot%3E%3C%2FmxGraphModel%3E&lt;/span&gt;&lt;/li&gt;&lt;/ul&gt;" style="text;html=1;align=left;verticalAlign=middle;whiteSpace=wrap;rounded=0;strokeColor=#000000;" vertex="1" parent="1">
          <mxGeometry x="1360" y="240" width="320" height="40" as="geometry" />
        </mxCell>
        <mxCell id="PnbgaBp97m9jd3xf3PGs-30" value="&lt;ul&gt;&lt;li&gt;&lt;b&gt;&lt;font style=&quot;font-size: 18px;&quot;&gt;Example Election C&lt;/font&gt;&lt;/b&gt;&lt;/li&gt;&lt;/ul&gt;" style="text;html=1;align=left;verticalAlign=middle;whiteSpace=wrap;rounded=0;strokeColor=#000000;" vertex="1" parent="1">
          <mxGeometry x="1360" y="280" width="320" height="40" as="geometry" />
        </mxCell>
        <mxCell id="PnbgaBp97m9jd3xf3PGs-31" value="&lt;ul&gt;&lt;li&gt;&lt;b&gt;&lt;font style=&quot;font-size: 18px;&quot;&gt;Example Election D&lt;/font&gt;&lt;/b&gt;&lt;/li&gt;&lt;/ul&gt;" style="text;html=1;align=left;verticalAlign=middle;whiteSpace=wrap;rounded=0;strokeColor=#000000;" vertex="1" parent="1">
          <mxGeometry x="1360" y="320" width="320" height="40" as="geometry" />
        </mxCell>
        <mxCell id="PnbgaBp97m9jd3xf3PGs-32" value="&lt;div style=&quot;&quot;&gt;&lt;span style=&quot;font-size: 18px;&quot;&gt;&lt;b&gt;...&lt;/b&gt;&lt;/span&gt;&lt;/div&gt;" style="text;html=1;align=center;verticalAlign=middle;whiteSpace=wrap;rounded=0;strokeColor=none;" vertex="1" parent="1">
          <mxGeometry x="1360" y="360" width="400" height="40" as="geometry" />
        </mxCell>
        <mxCell id="PnbgaBp97m9jd3xf3PGs-33" value="Complete" style="rounded=0;whiteSpace=wrap;html=1;" vertex="1" parent="1">
          <mxGeometry x="1680" y="200" width="80" height="40" as="geometry" />
        </mxCell>
        <mxCell id="PnbgaBp97m9jd3xf3PGs-34" value="&lt;span style=&quot;font-size: 14px;&quot;&gt;&lt;u&gt;Vote Status&lt;/u&gt;&lt;/span&gt;" style="text;strokeColor=none;fillColor=none;html=1;fontSize=24;fontStyle=1;verticalAlign=middle;align=center;" vertex="1" parent="1">
          <mxGeometry x="1680" y="150" width="80" height="40" as="geometry" />
        </mxCell>
        <mxCell id="PnbgaBp97m9jd3xf3PGs-36" value="x hours to go" style="rounded=0;whiteSpace=wrap;html=1;" vertex="1" parent="1">
          <mxGeometry x="1680" y="240" width="80" height="40" as="geometry" />
        </mxCell>
        <mxCell id="PnbgaBp97m9jd3xf3PGs-37" value="y days to go" style="rounded=0;whiteSpace=wrap;html=1;" vertex="1" parent="1">
          <mxGeometry x="1680" y="280" width="80" height="40" as="geometry" />
        </mxCell>
        <mxCell id="PnbgaBp97m9jd3xf3PGs-38" value="&amp;nbsp;z weeks to go" style="rounded=0;whiteSpace=wrap;html=1;" vertex="1" parent="1">
          <mxGeometry x="1680" y="320" width="80" height="40" as="geometry" />
        </mxCell>
        <mxCell id="PnbgaBp97m9jd3xf3PGs-39" value="" style="rounded=0;whiteSpace=wrap;html=1;fillColor=none;" vertex="1" parent="1">
          <mxGeometry x="1340" y="410" width="440" height="97.5" as="geometry" />
        </mxCell>
        <mxCell id="PnbgaBp97m9jd3xf3PGs-40" value="&lt;u&gt;Your Elections&lt;/u&gt;" style="text;strokeColor=none;fillColor=none;html=1;fontSize=24;fontStyle=1;verticalAlign=middle;align=center;" vertex="1" parent="1">
          <mxGeometry x="1340" y="410" width="193" height="40" as="geometry" />
        </mxCell>
        <mxCell id="PnbgaBp97m9jd3xf3PGs-41" value="Create New Election" style="rounded=1;whiteSpace=wrap;html=1;" vertex="1" parent="1">
          <mxGeometry x="1360" y="450" width="120" height="40" as="geometry" />
        </mxCell>
        <mxCell id="PnbgaBp97m9jd3xf3PGs-42" value="See Your Elections" style="rounded=1;whiteSpace=wrap;html=1;" vertex="1" parent="1">
          <mxGeometry x="1490" y="450" width="120" height="40" as="geometry" />
        </mxCell>
        <mxCell id="PnbgaBp97m9jd3xf3PGs-43" value="" style="rounded=0;whiteSpace=wrap;html=1;fillColor=none;" vertex="1" parent="1">
          <mxGeometry x="1960" y="40" width="480" height="480" as="geometry" />
        </mxCell>
        <mxCell id="PnbgaBp97m9jd3xf3PGs-44" value="" style="rounded=0;whiteSpace=wrap;html=1;fillColor=none;" vertex="1" parent="1">
          <mxGeometry x="1980" y="125" width="440" height="275" as="geometry" />
        </mxCell>
        <mxCell id="PnbgaBp97m9jd3xf3PGs-45" value="&lt;u&gt;Ongoing-Election Page&amp;nbsp;&lt;/u&gt;&lt;div&gt;&lt;u&gt;(That you have already voted in)&lt;/u&gt;&lt;/div&gt;" style="text;strokeColor=none;fillColor=none;html=1;fontSize=24;fontStyle=1;verticalAlign=middle;align=center;" vertex="1" parent="1">
          <mxGeometry x="1960" y="-30" width="480" height="40" as="geometry" />
        </mxCell>
        <mxCell id="PnbgaBp97m9jd3xf3PGs-46" value="Logo?" style="rounded=0;whiteSpace=wrap;html=1;" vertex="1" parent="1">
          <mxGeometry x="1970" y="50" width="100" height="60" as="geometry" />
        </mxCell>
        <mxCell id="PnbgaBp97m9jd3xf3PGs-47" value="Website Name" style="text;strokeColor=none;fillColor=none;html=1;fontSize=24;fontStyle=1;verticalAlign=middle;align=center;" vertex="1" parent="1">
          <mxGeometry x="2070" y="60" width="270" height="40" as="geometry" />
        </mxCell>
        <mxCell id="PnbgaBp97m9jd3xf3PGs-63" value="&lt;u&gt;Election Name&lt;/u&gt;" style="text;strokeColor=none;fillColor=none;html=1;fontSize=24;fontStyle=1;verticalAlign=middle;align=center;" vertex="1" parent="1">
          <mxGeometry x="2000" y="150" width="193" height="40" as="geometry" />
        </mxCell>
        <mxCell id="PnbgaBp97m9jd3xf3PGs-64" value="" style="rounded=0;whiteSpace=wrap;html=1;fillColor=none;" vertex="1" parent="1">
          <mxGeometry x="1980" y="411.25" width="440" height="97.5" as="geometry" />
        </mxCell>
        <mxCell id="PnbgaBp97m9jd3xf3PGs-81" value="&lt;div style=&quot;&quot;&gt;&lt;span style=&quot;font-size: 18px;&quot;&gt;&lt;b&gt;...&lt;/b&gt;&lt;/span&gt;&lt;/div&gt;" style="text;html=1;align=center;verticalAlign=middle;whiteSpace=wrap;rounded=0;strokeColor=none;" vertex="1" parent="1">
          <mxGeometry x="2000" y="360" width="400" height="40" as="geometry" />
        </mxCell>
        <mxCell id="PnbgaBp97m9jd3xf3PGs-82" value="Hello, User" style="text;html=1;align=center;verticalAlign=middle;whiteSpace=wrap;rounded=0;fillColor=none;strokeColor=#000000;" vertex="1" parent="1">
          <mxGeometry x="1700" y="60" width="80" height="50" as="geometry" />
        </mxCell>
        <mxCell id="PnbgaBp97m9jd3xf3PGs-83" value="Hello, User" style="text;html=1;align=center;verticalAlign=middle;whiteSpace=wrap;rounded=0;fillColor=none;strokeColor=#000000;" vertex="1" parent="1">
          <mxGeometry x="2340" y="55" width="80" height="50" as="geometry" />
        </mxCell>
        <mxCell id="PnbgaBp97m9jd3xf3PGs-84" value="&lt;u&gt;You&lt;/u&gt;" style="text;strokeColor=none;fillColor=none;html=1;fontSize=24;fontStyle=1;verticalAlign=middle;align=center;" vertex="1" parent="1">
          <mxGeometry x="2108.5" y="410" width="193" height="40" as="geometry" />
        </mxCell>
        <mxCell id="PnbgaBp97m9jd3xf3PGs-85" value="You have already voted in this election" style="rounded=1;whiteSpace=wrap;html=1;" vertex="1" parent="1">
          <mxGeometry x="2008" y="450" width="120" height="40" as="geometry" />
        </mxCell>
        <mxCell id="PnbgaBp97m9jd3xf3PGs-86" value="" style="rounded=0;whiteSpace=wrap;html=1;fillColor=none;" vertex="1" parent="1">
          <mxGeometry x="2600" y="40" width="480" height="480" as="geometry" />
        </mxCell>
        <mxCell id="PnbgaBp97m9jd3xf3PGs-87" value="" style="rounded=0;whiteSpace=wrap;html=1;fillColor=none;" vertex="1" parent="1">
          <mxGeometry x="2620" y="125" width="440" height="275" as="geometry" />
        </mxCell>
        <mxCell id="PnbgaBp97m9jd3xf3PGs-88" value="&lt;u&gt;Ongoing-Election Page&amp;nbsp;&lt;/u&gt;&lt;div&gt;&lt;u&gt;(That you haven&#39;t already voted in)&lt;/u&gt;&lt;/div&gt;" style="text;strokeColor=none;fillColor=none;html=1;fontSize=24;fontStyle=1;verticalAlign=middle;align=center;" vertex="1" parent="1">
          <mxGeometry x="2600" y="-30" width="480" height="40" as="geometry" />
        </mxCell>
        <mxCell id="PnbgaBp97m9jd3xf3PGs-89" value="Logo?" style="rounded=0;whiteSpace=wrap;html=1;" vertex="1" parent="1">
          <mxGeometry x="2610" y="50" width="100" height="60" as="geometry" />
        </mxCell>
        <mxCell id="PnbgaBp97m9jd3xf3PGs-90" value="Website Name" style="text;strokeColor=none;fillColor=none;html=1;fontSize=24;fontStyle=1;verticalAlign=middle;align=center;" vertex="1" parent="1">
          <mxGeometry x="2710" y="60" width="270" height="40" as="geometry" />
        </mxCell>
        <mxCell id="PnbgaBp97m9jd3xf3PGs-91" value="&lt;u&gt;Election Name&lt;/u&gt;" style="text;strokeColor=none;fillColor=none;html=1;fontSize=24;fontStyle=1;verticalAlign=middle;align=center;" vertex="1" parent="1">
          <mxGeometry x="2640" y="150" width="193" height="40" as="geometry" />
        </mxCell>
        <mxCell id="PnbgaBp97m9jd3xf3PGs-92" value="" style="rounded=0;whiteSpace=wrap;html=1;fillColor=none;" vertex="1" parent="1">
          <mxGeometry x="2620" y="411.25" width="440" height="97.5" as="geometry" />
        </mxCell>
        <mxCell id="PnbgaBp97m9jd3xf3PGs-105" value="&lt;div style=&quot;&quot;&gt;&lt;span style=&quot;font-size: 18px;&quot;&gt;&lt;b&gt;...&lt;/b&gt;&lt;/span&gt;&lt;/div&gt;" style="text;html=1;align=center;verticalAlign=middle;whiteSpace=wrap;rounded=0;strokeColor=none;" vertex="1" parent="1">
          <mxGeometry x="2640" y="360" width="400" height="40" as="geometry" />
        </mxCell>
        <mxCell id="PnbgaBp97m9jd3xf3PGs-106" value="Hello, User" style="text;html=1;align=center;verticalAlign=middle;whiteSpace=wrap;rounded=0;fillColor=none;strokeColor=#000000;" vertex="1" parent="1">
          <mxGeometry x="2980" y="55" width="80" height="50" as="geometry" />
        </mxCell>
        <mxCell id="PnbgaBp97m9jd3xf3PGs-107" value="&lt;u&gt;You&lt;/u&gt;" style="text;strokeColor=none;fillColor=none;html=1;fontSize=24;fontStyle=1;verticalAlign=middle;align=center;" vertex="1" parent="1">
          <mxGeometry x="2748.5" y="410" width="193" height="40" as="geometry" />
        </mxCell>
        <mxCell id="PnbgaBp97m9jd3xf3PGs-108" value="vote in this election" style="rounded=1;whiteSpace=wrap;html=1;" vertex="1" parent="1">
          <mxGeometry x="2640" y="450" width="120" height="40" as="geometry" />
        </mxCell>
        <mxCell id="PnbgaBp97m9jd3xf3PGs-109" value="" style="rounded=0;whiteSpace=wrap;html=1;fillColor=none;" vertex="1" parent="1">
          <mxGeometry x="4520" y="40" width="480" height="480" as="geometry" />
        </mxCell>
        <mxCell id="PnbgaBp97m9jd3xf3PGs-110" value="" style="rounded=0;whiteSpace=wrap;html=1;fillColor=none;" vertex="1" parent="1">
          <mxGeometry x="4540" y="125" width="440" height="385" as="geometry" />
        </mxCell>
        <mxCell id="PnbgaBp97m9jd3xf3PGs-111" value="&lt;u&gt;New election Initial details page&lt;/u&gt;" style="text;strokeColor=none;fillColor=none;html=1;fontSize=24;fontStyle=1;verticalAlign=middle;align=center;" vertex="1" parent="1">
          <mxGeometry x="4520" y="-30" width="480" height="40" as="geometry" />
        </mxCell>
        <mxCell id="PnbgaBp97m9jd3xf3PGs-112" value="Logo?" style="rounded=0;whiteSpace=wrap;html=1;" vertex="1" parent="1">
          <mxGeometry x="4530" y="50" width="100" height="60" as="geometry" />
        </mxCell>
        <mxCell id="PnbgaBp97m9jd3xf3PGs-113" value="Website Name" style="text;strokeColor=none;fillColor=none;html=1;fontSize=24;fontStyle=1;verticalAlign=middle;align=center;" vertex="1" parent="1">
          <mxGeometry x="4630" y="60" width="270" height="40" as="geometry" />
        </mxCell>
        <mxCell id="PnbgaBp97m9jd3xf3PGs-129" value="Hello, User" style="text;html=1;align=center;verticalAlign=middle;whiteSpace=wrap;rounded=0;fillColor=none;strokeColor=#000000;" vertex="1" parent="1">
          <mxGeometry x="4900" y="55" width="80" height="50" as="geometry" />
        </mxCell>
        <mxCell id="PnbgaBp97m9jd3xf3PGs-132" value="&lt;u&gt;Create New Election&lt;/u&gt;" style="text;strokeColor=none;fillColor=none;html=1;fontSize=24;fontStyle=1;verticalAlign=middle;align=center;" vertex="1" parent="1">
          <mxGeometry x="4550" y="150" width="240" height="40" as="geometry" />
        </mxCell>
        <mxCell id="PnbgaBp97m9jd3xf3PGs-133" value="" style="rounded=0;whiteSpace=wrap;html=1;fillColor=none;" vertex="1" parent="1">
          <mxGeometry x="4550" y="215" width="360" height="20" as="geometry" />
        </mxCell>
        <mxCell id="PnbgaBp97m9jd3xf3PGs-134" value="Election Name" style="text;html=1;align=center;verticalAlign=middle;whiteSpace=wrap;rounded=0;" vertex="1" parent="1">
          <mxGeometry x="4550" y="190" width="90" height="30" as="geometry" />
        </mxCell>
        <mxCell id="PnbgaBp97m9jd3xf3PGs-135" value="" style="rounded=0;whiteSpace=wrap;html=1;fillColor=none;" vertex="1" parent="1">
          <mxGeometry x="4550" y="265" width="360" height="20" as="geometry" />
        </mxCell>
        <mxCell id="PnbgaBp97m9jd3xf3PGs-136" value="Election Start-Time" style="text;html=1;align=center;verticalAlign=middle;whiteSpace=wrap;rounded=0;" vertex="1" parent="1">
          <mxGeometry x="4550" y="240" width="110" height="30" as="geometry" />
        </mxCell>
        <mxCell id="PnbgaBp97m9jd3xf3PGs-137" value="" style="rounded=0;whiteSpace=wrap;html=1;fillColor=none;" vertex="1" parent="1">
          <mxGeometry x="4550" y="312.5" width="360" height="20" as="geometry" />
        </mxCell>
        <mxCell id="PnbgaBp97m9jd3xf3PGs-138" value="Election End-Time" style="text;html=1;align=center;verticalAlign=middle;whiteSpace=wrap;rounded=0;" vertex="1" parent="1">
          <mxGeometry x="4550" y="287.5" width="110" height="30" as="geometry" />
        </mxCell>
        <mxCell id="PnbgaBp97m9jd3xf3PGs-141" value="Next" style="rounded=1;whiteSpace=wrap;html=1;" vertex="1" parent="1">
          <mxGeometry x="4630" y="450" width="120" height="40" as="geometry" />
        </mxCell>
        <mxCell id="PnbgaBp97m9jd3xf3PGs-142" value="" style="rounded=0;whiteSpace=wrap;html=1;fillColor=none;" vertex="1" parent="1">
          <mxGeometry x="3240" y="40" width="480" height="480" as="geometry" />
        </mxCell>
        <mxCell id="PnbgaBp97m9jd3xf3PGs-143" value="" style="rounded=0;whiteSpace=wrap;html=1;fillColor=none;" vertex="1" parent="1">
          <mxGeometry x="3260" y="125" width="440" height="275" as="geometry" />
        </mxCell>
        <mxCell id="PnbgaBp97m9jd3xf3PGs-144" value="&lt;u&gt;Ongoing-Election Page&amp;nbsp;&lt;/u&gt;&lt;div&gt;&lt;u&gt;(That you created)&lt;/u&gt;&lt;/div&gt;" style="text;strokeColor=none;fillColor=none;html=1;fontSize=24;fontStyle=1;verticalAlign=middle;align=center;" vertex="1" parent="1">
          <mxGeometry x="3240" y="-30" width="480" height="40" as="geometry" />
        </mxCell>
        <mxCell id="PnbgaBp97m9jd3xf3PGs-145" value="Logo?" style="rounded=0;whiteSpace=wrap;html=1;" vertex="1" parent="1">
          <mxGeometry x="3250" y="50" width="100" height="60" as="geometry" />
        </mxCell>
        <mxCell id="PnbgaBp97m9jd3xf3PGs-146" value="Website Name" style="text;strokeColor=none;fillColor=none;html=1;fontSize=24;fontStyle=1;verticalAlign=middle;align=center;" vertex="1" parent="1">
          <mxGeometry x="3350" y="60" width="270" height="40" as="geometry" />
        </mxCell>
        <mxCell id="PnbgaBp97m9jd3xf3PGs-147" value="&lt;u&gt;Election Name&lt;/u&gt;" style="text;strokeColor=none;fillColor=none;html=1;fontSize=24;fontStyle=1;verticalAlign=middle;align=center;" vertex="1" parent="1">
          <mxGeometry x="3280" y="150" width="193" height="40" as="geometry" />
        </mxCell>
        <mxCell id="PnbgaBp97m9jd3xf3PGs-148" value="" style="rounded=0;whiteSpace=wrap;html=1;fillColor=none;" vertex="1" parent="1">
          <mxGeometry x="3260" y="411.25" width="440" height="97.5" as="geometry" />
        </mxCell>
        <mxCell id="PnbgaBp97m9jd3xf3PGs-161" value="&lt;div style=&quot;&quot;&gt;&lt;span style=&quot;font-size: 18px;&quot;&gt;&lt;b&gt;...&lt;/b&gt;&lt;/span&gt;&lt;/div&gt;" style="text;html=1;align=center;verticalAlign=middle;whiteSpace=wrap;rounded=0;strokeColor=none;" vertex="1" parent="1">
          <mxGeometry x="3280" y="360" width="400" height="40" as="geometry" />
        </mxCell>
        <mxCell id="PnbgaBp97m9jd3xf3PGs-162" value="Hello, User" style="text;html=1;align=center;verticalAlign=middle;whiteSpace=wrap;rounded=0;fillColor=none;strokeColor=#000000;" vertex="1" parent="1">
          <mxGeometry x="3620" y="55" width="80" height="50" as="geometry" />
        </mxCell>
        <mxCell id="PnbgaBp97m9jd3xf3PGs-163" value="&lt;u&gt;You&lt;/u&gt;" style="text;strokeColor=none;fillColor=none;html=1;fontSize=24;fontStyle=1;verticalAlign=middle;align=center;" vertex="1" parent="1">
          <mxGeometry x="3388.5" y="410" width="193" height="40" as="geometry" />
        </mxCell>
        <mxCell id="PnbgaBp97m9jd3xf3PGs-164" value="Cancel Election" style="rounded=1;whiteSpace=wrap;html=1;" vertex="1" parent="1">
          <mxGeometry x="3420" y="450" width="120" height="40" as="geometry" />
        </mxCell>
        <mxCell id="PnbgaBp97m9jd3xf3PGs-165" value="View secret-holder&#39;s status" style="rounded=1;whiteSpace=wrap;html=1;" vertex="1" parent="1">
          <mxGeometry x="3560" y="450" width="120" height="40" as="geometry" />
        </mxCell>
        <mxCell id="PnbgaBp97m9jd3xf3PGs-166" value="" style="rounded=0;whiteSpace=wrap;html=1;fillColor=none;" vertex="1" parent="1">
          <mxGeometry x="5160" y="40" width="480" height="480" as="geometry" />
        </mxCell>
        <mxCell id="PnbgaBp97m9jd3xf3PGs-167" value="" style="rounded=0;whiteSpace=wrap;html=1;fillColor=none;" vertex="1" parent="1">
          <mxGeometry x="5180" y="125" width="440" height="385" as="geometry" />
        </mxCell>
        <mxCell id="PnbgaBp97m9jd3xf3PGs-168" value="&lt;u&gt;New election Candidates page&lt;/u&gt;" style="text;strokeColor=none;fillColor=none;html=1;fontSize=24;fontStyle=1;verticalAlign=middle;align=center;" vertex="1" parent="1">
          <mxGeometry x="5160" y="-30" width="480" height="40" as="geometry" />
        </mxCell>
        <mxCell id="PnbgaBp97m9jd3xf3PGs-169" value="Logo?" style="rounded=0;whiteSpace=wrap;html=1;" vertex="1" parent="1">
          <mxGeometry x="5170" y="50" width="100" height="60" as="geometry" />
        </mxCell>
        <mxCell id="PnbgaBp97m9jd3xf3PGs-170" value="Website Name" style="text;strokeColor=none;fillColor=none;html=1;fontSize=24;fontStyle=1;verticalAlign=middle;align=center;" vertex="1" parent="1">
          <mxGeometry x="5270" y="60" width="270" height="40" as="geometry" />
        </mxCell>
        <mxCell id="PnbgaBp97m9jd3xf3PGs-171" value="Hello, User" style="text;html=1;align=center;verticalAlign=middle;whiteSpace=wrap;rounded=0;fillColor=none;strokeColor=#000000;" vertex="1" parent="1">
          <mxGeometry x="5540" y="55" width="80" height="50" as="geometry" />
        </mxCell>
        <mxCell id="PnbgaBp97m9jd3xf3PGs-172" value="&lt;u&gt;Create New Election: Candidates&lt;/u&gt;" style="text;strokeColor=none;fillColor=none;html=1;fontSize=24;fontStyle=1;verticalAlign=middle;align=center;" vertex="1" parent="1">
          <mxGeometry x="5190" y="150" width="380" height="40" as="geometry" />
        </mxCell>
        <mxCell id="PnbgaBp97m9jd3xf3PGs-173" value="" style="rounded=0;whiteSpace=wrap;html=1;fillColor=none;" vertex="1" parent="1">
          <mxGeometry x="5190" y="215" width="360" height="20" as="geometry" />
        </mxCell>
        <mxCell id="PnbgaBp97m9jd3xf3PGs-174" value="Candidate Name" style="text;html=1;align=center;verticalAlign=middle;whiteSpace=wrap;rounded=0;" vertex="1" parent="1">
          <mxGeometry x="5190" y="190" width="100" height="30" as="geometry" />
        </mxCell>
        <mxCell id="PnbgaBp97m9jd3xf3PGs-175" value="" style="rounded=0;whiteSpace=wrap;html=1;fillColor=none;" vertex="1" parent="1">
          <mxGeometry x="5190" y="265" width="360" height="65" as="geometry" />
        </mxCell>
        <mxCell id="PnbgaBp97m9jd3xf3PGs-176" value="Candidate Information" style="text;html=1;align=center;verticalAlign=middle;whiteSpace=wrap;rounded=0;" vertex="1" parent="1">
          <mxGeometry x="5190" y="240" width="130" height="30" as="geometry" />
        </mxCell>
        <mxCell id="PnbgaBp97m9jd3xf3PGs-179" value="Next" style="rounded=1;whiteSpace=wrap;html=1;" vertex="1" parent="1">
          <mxGeometry x="5210" y="450" width="120" height="40" as="geometry" />
        </mxCell>
        <mxCell id="PnbgaBp97m9jd3xf3PGs-180" value="&lt;b&gt;&lt;font style=&quot;font-size: 18px;&quot;&gt;...&lt;/font&gt;&lt;/b&gt;" style="rounded=0;whiteSpace=wrap;html=1;fillColor=none;align=left;" vertex="1" parent="1">
          <mxGeometry x="5190" y="357.5" width="360" height="20" as="geometry" />
        </mxCell>
        <mxCell id="PnbgaBp97m9jd3xf3PGs-181" value="Set Candidate Colour" style="text;html=1;align=center;verticalAlign=middle;whiteSpace=wrap;rounded=0;" vertex="1" parent="1">
          <mxGeometry x="5190" y="332.5" width="120" height="30" as="geometry" />
        </mxCell>
        <mxCell id="PnbgaBp97m9jd3xf3PGs-182" value="Delete Election Draft" style="rounded=1;whiteSpace=wrap;html=1;" vertex="1" parent="1">
          <mxGeometry x="4770" y="450" width="120" height="40" as="geometry" />
        </mxCell>
        <mxCell id="PnbgaBp97m9jd3xf3PGs-183" value="You cannot vote in your own election" style="rounded=1;whiteSpace=wrap;html=1;" vertex="1" parent="1">
          <mxGeometry x="3280" y="450" width="120" height="40" as="geometry" />
        </mxCell>
        <mxCell id="PnbgaBp97m9jd3xf3PGs-184" value="Delete Election Draft" style="rounded=1;whiteSpace=wrap;html=1;" vertex="1" parent="1">
          <mxGeometry x="5482" y="450" width="120" height="40" as="geometry" />
        </mxCell>
        <mxCell id="PnbgaBp97m9jd3xf3PGs-185" value="Back" style="rounded=1;whiteSpace=wrap;html=1;" vertex="1" parent="1">
          <mxGeometry x="5345" y="450" width="120" height="40" as="geometry" />
        </mxCell>
        <mxCell id="PnbgaBp97m9jd3xf3PGs-186" value="Add Candidate" style="rounded=0;whiteSpace=wrap;html=1;fillColor=none;" vertex="1" parent="1">
          <mxGeometry x="5340" y="390" width="120" height="30" as="geometry" />
        </mxCell>
        <mxCell id="PnbgaBp97m9jd3xf3PGs-187" value="Report Election Issue" style="rounded=1;whiteSpace=wrap;html=1;" vertex="1" parent="1">
          <mxGeometry x="2920" y="150" width="120" height="40" as="geometry" />
        </mxCell>
        <mxCell id="PnbgaBp97m9jd3xf3PGs-188" value="Report Election Issue" style="rounded=1;whiteSpace=wrap;html=1;" vertex="1" parent="1">
          <mxGeometry x="3560" y="150" width="120" height="40" as="geometry" />
        </mxCell>
        <mxCell id="PnbgaBp97m9jd3xf3PGs-189" value="Report Election Issue" style="rounded=1;whiteSpace=wrap;html=1;" vertex="1" parent="1">
          <mxGeometry x="2280" y="150" width="120" height="40" as="geometry" />
        </mxCell>
        <mxCell id="2KvZrEVUXUL-wnWpDbjV-4" value="" style="shape=table;startSize=0;container=1;collapsible=0;childLayout=tableLayout;" vertex="1" parent="1">
          <mxGeometry x="2000" y="200" width="400" height="160" as="geometry" />
        </mxCell>
        <mxCell id="2KvZrEVUXUL-wnWpDbjV-5" value="" style="shape=tableRow;horizontal=0;startSize=0;swimlaneHead=0;swimlaneBody=0;strokeColor=inherit;top=0;left=0;bottom=0;right=0;collapsible=0;dropTarget=0;fillColor=none;points=[[0,0.5],[1,0.5]];portConstraint=eastwest;" vertex="1" parent="2KvZrEVUXUL-wnWpDbjV-4">
          <mxGeometry width="400" height="53" as="geometry" />
        </mxCell>
        <mxCell id="2KvZrEVUXUL-wnWpDbjV-6" value="Election detail A" style="shape=partialRectangle;html=1;whiteSpace=wrap;connectable=0;strokeColor=inherit;overflow=hidden;fillColor=none;top=0;left=0;bottom=0;right=0;pointerEvents=1;" vertex="1" parent="2KvZrEVUXUL-wnWpDbjV-5">
          <mxGeometry width="320" height="53" as="geometry">
            <mxRectangle width="320" height="53" as="alternateBounds" />
          </mxGeometry>
        </mxCell>
        <mxCell id="2KvZrEVUXUL-wnWpDbjV-7" value="?" style="shape=partialRectangle;html=1;whiteSpace=wrap;connectable=0;strokeColor=inherit;overflow=hidden;fillColor=none;top=0;left=0;bottom=0;right=0;pointerEvents=1;" vertex="1" parent="2KvZrEVUXUL-wnWpDbjV-5">
          <mxGeometry x="320" width="80" height="53" as="geometry">
            <mxRectangle width="80" height="53" as="alternateBounds" />
          </mxGeometry>
        </mxCell>
        <mxCell id="2KvZrEVUXUL-wnWpDbjV-8" value="" style="shape=tableRow;horizontal=0;startSize=0;swimlaneHead=0;swimlaneBody=0;strokeColor=inherit;top=0;left=0;bottom=0;right=0;collapsible=0;dropTarget=0;fillColor=none;points=[[0,0.5],[1,0.5]];portConstraint=eastwest;" vertex="1" parent="2KvZrEVUXUL-wnWpDbjV-4">
          <mxGeometry y="53" width="400" height="54" as="geometry" />
        </mxCell>
        <mxCell id="2KvZrEVUXUL-wnWpDbjV-9" value="Election detail B" style="shape=partialRectangle;html=1;whiteSpace=wrap;connectable=0;strokeColor=inherit;overflow=hidden;fillColor=none;top=0;left=0;bottom=0;right=0;pointerEvents=1;" vertex="1" parent="2KvZrEVUXUL-wnWpDbjV-8">
          <mxGeometry width="320" height="54" as="geometry">
            <mxRectangle width="320" height="54" as="alternateBounds" />
          </mxGeometry>
        </mxCell>
        <mxCell id="2KvZrEVUXUL-wnWpDbjV-10" value="?" style="shape=partialRectangle;html=1;whiteSpace=wrap;connectable=0;strokeColor=inherit;overflow=hidden;fillColor=none;top=0;left=0;bottom=0;right=0;pointerEvents=1;" vertex="1" parent="2KvZrEVUXUL-wnWpDbjV-8">
          <mxGeometry x="320" width="80" height="54" as="geometry">
            <mxRectangle width="80" height="54" as="alternateBounds" />
          </mxGeometry>
        </mxCell>
        <mxCell id="2KvZrEVUXUL-wnWpDbjV-11" value="" style="shape=tableRow;horizontal=0;startSize=0;swimlaneHead=0;swimlaneBody=0;strokeColor=inherit;top=0;left=0;bottom=0;right=0;collapsible=0;dropTarget=0;fillColor=none;points=[[0,0.5],[1,0.5]];portConstraint=eastwest;" vertex="1" parent="2KvZrEVUXUL-wnWpDbjV-4">
          <mxGeometry y="107" width="400" height="53" as="geometry" />
        </mxCell>
        <mxCell id="2KvZrEVUXUL-wnWpDbjV-12" value="Election detail C" style="shape=partialRectangle;html=1;whiteSpace=wrap;connectable=0;strokeColor=inherit;overflow=hidden;fillColor=none;top=0;left=0;bottom=0;right=0;pointerEvents=1;" vertex="1" parent="2KvZrEVUXUL-wnWpDbjV-11">
          <mxGeometry width="320" height="53" as="geometry">
            <mxRectangle width="320" height="53" as="alternateBounds" />
          </mxGeometry>
        </mxCell>
        <mxCell id="2KvZrEVUXUL-wnWpDbjV-13" value="?" style="shape=partialRectangle;html=1;whiteSpace=wrap;connectable=0;strokeColor=inherit;overflow=hidden;fillColor=none;top=0;left=0;bottom=0;right=0;pointerEvents=1;" vertex="1" parent="2KvZrEVUXUL-wnWpDbjV-11">
          <mxGeometry x="320" width="80" height="53" as="geometry">
            <mxRectangle width="80" height="53" as="alternateBounds" />
          </mxGeometry>
        </mxCell>
        <mxCell id="2KvZrEVUXUL-wnWpDbjV-14" value="" style="shape=table;startSize=0;container=1;collapsible=0;childLayout=tableLayout;" vertex="1" parent="1">
          <mxGeometry x="2640" y="200" width="400" height="160" as="geometry" />
        </mxCell>
        <mxCell id="2KvZrEVUXUL-wnWpDbjV-15" value="" style="shape=tableRow;horizontal=0;startSize=0;swimlaneHead=0;swimlaneBody=0;strokeColor=inherit;top=0;left=0;bottom=0;right=0;collapsible=0;dropTarget=0;fillColor=none;points=[[0,0.5],[1,0.5]];portConstraint=eastwest;" vertex="1" parent="2KvZrEVUXUL-wnWpDbjV-14">
          <mxGeometry width="400" height="53" as="geometry" />
        </mxCell>
        <mxCell id="2KvZrEVUXUL-wnWpDbjV-16" value="Election detail A" style="shape=partialRectangle;html=1;whiteSpace=wrap;connectable=0;strokeColor=inherit;overflow=hidden;fillColor=none;top=0;left=0;bottom=0;right=0;pointerEvents=1;" vertex="1" parent="2KvZrEVUXUL-wnWpDbjV-15">
          <mxGeometry width="320" height="53" as="geometry">
            <mxRectangle width="320" height="53" as="alternateBounds" />
          </mxGeometry>
        </mxCell>
        <mxCell id="2KvZrEVUXUL-wnWpDbjV-17" value="?" style="shape=partialRectangle;html=1;whiteSpace=wrap;connectable=0;strokeColor=inherit;overflow=hidden;fillColor=none;top=0;left=0;bottom=0;right=0;pointerEvents=1;" vertex="1" parent="2KvZrEVUXUL-wnWpDbjV-15">
          <mxGeometry x="320" width="80" height="53" as="geometry">
            <mxRectangle width="80" height="53" as="alternateBounds" />
          </mxGeometry>
        </mxCell>
        <mxCell id="2KvZrEVUXUL-wnWpDbjV-18" value="" style="shape=tableRow;horizontal=0;startSize=0;swimlaneHead=0;swimlaneBody=0;strokeColor=inherit;top=0;left=0;bottom=0;right=0;collapsible=0;dropTarget=0;fillColor=none;points=[[0,0.5],[1,0.5]];portConstraint=eastwest;" vertex="1" parent="2KvZrEVUXUL-wnWpDbjV-14">
          <mxGeometry y="53" width="400" height="54" as="geometry" />
        </mxCell>
        <mxCell id="2KvZrEVUXUL-wnWpDbjV-19" value="Election detail B" style="shape=partialRectangle;html=1;whiteSpace=wrap;connectable=0;strokeColor=inherit;overflow=hidden;fillColor=none;top=0;left=0;bottom=0;right=0;pointerEvents=1;" vertex="1" parent="2KvZrEVUXUL-wnWpDbjV-18">
          <mxGeometry width="320" height="54" as="geometry">
            <mxRectangle width="320" height="54" as="alternateBounds" />
          </mxGeometry>
        </mxCell>
        <mxCell id="2KvZrEVUXUL-wnWpDbjV-20" value="?" style="shape=partialRectangle;html=1;whiteSpace=wrap;connectable=0;strokeColor=inherit;overflow=hidden;fillColor=none;top=0;left=0;bottom=0;right=0;pointerEvents=1;" vertex="1" parent="2KvZrEVUXUL-wnWpDbjV-18">
          <mxGeometry x="320" width="80" height="54" as="geometry">
            <mxRectangle width="80" height="54" as="alternateBounds" />
          </mxGeometry>
        </mxCell>
        <mxCell id="2KvZrEVUXUL-wnWpDbjV-21" value="" style="shape=tableRow;horizontal=0;startSize=0;swimlaneHead=0;swimlaneBody=0;strokeColor=inherit;top=0;left=0;bottom=0;right=0;collapsible=0;dropTarget=0;fillColor=none;points=[[0,0.5],[1,0.5]];portConstraint=eastwest;" vertex="1" parent="2KvZrEVUXUL-wnWpDbjV-14">
          <mxGeometry y="107" width="400" height="53" as="geometry" />
        </mxCell>
        <mxCell id="2KvZrEVUXUL-wnWpDbjV-22" value="Election detail C" style="shape=partialRectangle;html=1;whiteSpace=wrap;connectable=0;strokeColor=inherit;overflow=hidden;fillColor=none;top=0;left=0;bottom=0;right=0;pointerEvents=1;" vertex="1" parent="2KvZrEVUXUL-wnWpDbjV-21">
          <mxGeometry width="320" height="53" as="geometry">
            <mxRectangle width="320" height="53" as="alternateBounds" />
          </mxGeometry>
        </mxCell>
        <mxCell id="2KvZrEVUXUL-wnWpDbjV-23" value="?" style="shape=partialRectangle;html=1;whiteSpace=wrap;connectable=0;strokeColor=inherit;overflow=hidden;fillColor=none;top=0;left=0;bottom=0;right=0;pointerEvents=1;" vertex="1" parent="2KvZrEVUXUL-wnWpDbjV-21">
          <mxGeometry x="320" width="80" height="53" as="geometry">
            <mxRectangle width="80" height="53" as="alternateBounds" />
          </mxGeometry>
        </mxCell>
        <mxCell id="2KvZrEVUXUL-wnWpDbjV-24" value="" style="shape=table;startSize=0;container=1;collapsible=0;childLayout=tableLayout;" vertex="1" parent="1">
          <mxGeometry x="3280" y="200" width="400" height="160" as="geometry" />
        </mxCell>
        <mxCell id="2KvZrEVUXUL-wnWpDbjV-25" value="" style="shape=tableRow;horizontal=0;startSize=0;swimlaneHead=0;swimlaneBody=0;strokeColor=inherit;top=0;left=0;bottom=0;right=0;collapsible=0;dropTarget=0;fillColor=none;points=[[0,0.5],[1,0.5]];portConstraint=eastwest;" vertex="1" parent="2KvZrEVUXUL-wnWpDbjV-24">
          <mxGeometry width="400" height="53" as="geometry" />
        </mxCell>
        <mxCell id="2KvZrEVUXUL-wnWpDbjV-26" value="Election detail A" style="shape=partialRectangle;html=1;whiteSpace=wrap;connectable=0;strokeColor=inherit;overflow=hidden;fillColor=none;top=0;left=0;bottom=0;right=0;pointerEvents=1;" vertex="1" parent="2KvZrEVUXUL-wnWpDbjV-25">
          <mxGeometry width="320" height="53" as="geometry">
            <mxRectangle width="320" height="53" as="alternateBounds" />
          </mxGeometry>
        </mxCell>
        <mxCell id="2KvZrEVUXUL-wnWpDbjV-27" value="?" style="shape=partialRectangle;html=1;whiteSpace=wrap;connectable=0;strokeColor=inherit;overflow=hidden;fillColor=none;top=0;left=0;bottom=0;right=0;pointerEvents=1;" vertex="1" parent="2KvZrEVUXUL-wnWpDbjV-25">
          <mxGeometry x="320" width="80" height="53" as="geometry">
            <mxRectangle width="80" height="53" as="alternateBounds" />
          </mxGeometry>
        </mxCell>
        <mxCell id="2KvZrEVUXUL-wnWpDbjV-28" value="" style="shape=tableRow;horizontal=0;startSize=0;swimlaneHead=0;swimlaneBody=0;strokeColor=inherit;top=0;left=0;bottom=0;right=0;collapsible=0;dropTarget=0;fillColor=none;points=[[0,0.5],[1,0.5]];portConstraint=eastwest;" vertex="1" parent="2KvZrEVUXUL-wnWpDbjV-24">
          <mxGeometry y="53" width="400" height="54" as="geometry" />
        </mxCell>
        <mxCell id="2KvZrEVUXUL-wnWpDbjV-29" value="Election detail B" style="shape=partialRectangle;html=1;whiteSpace=wrap;connectable=0;strokeColor=inherit;overflow=hidden;fillColor=none;top=0;left=0;bottom=0;right=0;pointerEvents=1;" vertex="1" parent="2KvZrEVUXUL-wnWpDbjV-28">
          <mxGeometry width="320" height="54" as="geometry">
            <mxRectangle width="320" height="54" as="alternateBounds" />
          </mxGeometry>
        </mxCell>
        <mxCell id="2KvZrEVUXUL-wnWpDbjV-30" value="?" style="shape=partialRectangle;html=1;whiteSpace=wrap;connectable=0;strokeColor=inherit;overflow=hidden;fillColor=none;top=0;left=0;bottom=0;right=0;pointerEvents=1;" vertex="1" parent="2KvZrEVUXUL-wnWpDbjV-28">
          <mxGeometry x="320" width="80" height="54" as="geometry">
            <mxRectangle width="80" height="54" as="alternateBounds" />
          </mxGeometry>
        </mxCell>
        <mxCell id="2KvZrEVUXUL-wnWpDbjV-31" value="" style="shape=tableRow;horizontal=0;startSize=0;swimlaneHead=0;swimlaneBody=0;strokeColor=inherit;top=0;left=0;bottom=0;right=0;collapsible=0;dropTarget=0;fillColor=none;points=[[0,0.5],[1,0.5]];portConstraint=eastwest;" vertex="1" parent="2KvZrEVUXUL-wnWpDbjV-24">
          <mxGeometry y="107" width="400" height="53" as="geometry" />
        </mxCell>
        <mxCell id="2KvZrEVUXUL-wnWpDbjV-32" value="Election detail C" style="shape=partialRectangle;html=1;whiteSpace=wrap;connectable=0;strokeColor=inherit;overflow=hidden;fillColor=none;top=0;left=0;bottom=0;right=0;pointerEvents=1;" vertex="1" parent="2KvZrEVUXUL-wnWpDbjV-31">
          <mxGeometry width="320" height="53" as="geometry">
            <mxRectangle width="320" height="53" as="alternateBounds" />
          </mxGeometry>
        </mxCell>
        <mxCell id="2KvZrEVUXUL-wnWpDbjV-33" value="?" style="shape=partialRectangle;html=1;whiteSpace=wrap;connectable=0;strokeColor=inherit;overflow=hidden;fillColor=none;top=0;left=0;bottom=0;right=0;pointerEvents=1;" vertex="1" parent="2KvZrEVUXUL-wnWpDbjV-31">
          <mxGeometry x="320" width="80" height="53" as="geometry">
            <mxRectangle width="80" height="53" as="alternateBounds" />
          </mxGeometry>
        </mxCell>
        <mxCell id="yOq8okk44wxxe_2aPgNt-1" value="Become A secret-holder" style="rounded=1;whiteSpace=wrap;html=1;" vertex="1" parent="1">
          <mxGeometry x="2145" y="450" width="120" height="40" as="geometry" />
        </mxCell>
        <mxCell id="yOq8okk44wxxe_2aPgNt-2" value="Become A secret-holder" style="rounded=1;whiteSpace=wrap;html=1;" vertex="1" parent="1">
          <mxGeometry x="2785" y="450" width="120" height="40" as="geometry" />
        </mxCell>
        <mxCell id="yOq8okk44wxxe_2aPgNt-4" value="" style="rounded=0;whiteSpace=wrap;html=1;fillColor=none;" vertex="1" parent="1">
          <mxGeometry x="3880" y="40" width="480" height="480" as="geometry" />
        </mxCell>
        <mxCell id="yOq8okk44wxxe_2aPgNt-5" value="" style="rounded=0;whiteSpace=wrap;html=1;fillColor=none;" vertex="1" parent="1">
          <mxGeometry x="3900" y="125" width="440" height="315" as="geometry" />
        </mxCell>
        <mxCell id="yOq8okk44wxxe_2aPgNt-6" value="&lt;u&gt;Election Secret-holder List&lt;/u&gt;" style="text;strokeColor=none;fillColor=none;html=1;fontSize=24;fontStyle=1;verticalAlign=middle;align=center;" vertex="1" parent="1">
          <mxGeometry x="3880" y="-30" width="480" height="40" as="geometry" />
        </mxCell>
        <mxCell id="yOq8okk44wxxe_2aPgNt-7" value="Logo?" style="rounded=0;whiteSpace=wrap;html=1;" vertex="1" parent="1">
          <mxGeometry x="3890" y="50" width="100" height="60" as="geometry" />
        </mxCell>
        <mxCell id="yOq8okk44wxxe_2aPgNt-8" value="Website Name" style="text;strokeColor=none;fillColor=none;html=1;fontSize=24;fontStyle=1;verticalAlign=middle;align=center;" vertex="1" parent="1">
          <mxGeometry x="3990" y="60" width="270" height="40" as="geometry" />
        </mxCell>
        <mxCell id="yOq8okk44wxxe_2aPgNt-9" value="&lt;u&gt;Election Name:&lt;/u&gt;&lt;div&gt;&lt;u&gt;Secret-holders List&lt;/u&gt;&lt;/div&gt;" style="text;strokeColor=none;fillColor=none;html=1;fontSize=24;fontStyle=1;verticalAlign=middle;align=center;" vertex="1" parent="1">
          <mxGeometry x="3920" y="140" width="300" height="40" as="geometry" />
        </mxCell>
        <mxCell id="yOq8okk44wxxe_2aPgNt-11" value="&lt;div style=&quot;&quot;&gt;&lt;span style=&quot;font-size: 18px;&quot;&gt;&lt;b&gt;...&lt;/b&gt;&lt;/span&gt;&lt;/div&gt;" style="text;html=1;align=center;verticalAlign=middle;whiteSpace=wrap;rounded=0;strokeColor=none;" vertex="1" parent="1">
          <mxGeometry x="3920" y="360" width="400" height="40" as="geometry" />
        </mxCell>
        <mxCell id="yOq8okk44wxxe_2aPgNt-12" value="Hello, User" style="text;html=1;align=center;verticalAlign=middle;whiteSpace=wrap;rounded=0;fillColor=none;strokeColor=#000000;" vertex="1" parent="1">
          <mxGeometry x="4260" y="55" width="80" height="50" as="geometry" />
        </mxCell>
        <mxCell id="yOq8okk44wxxe_2aPgNt-16" value="Back to election page" style="rounded=1;whiteSpace=wrap;html=1;" vertex="1" parent="1">
          <mxGeometry x="4065" y="460" width="120" height="40" as="geometry" />
        </mxCell>
        <mxCell id="yOq8okk44wxxe_2aPgNt-17" value="Report Election Issue" style="rounded=1;whiteSpace=wrap;html=1;" vertex="1" parent="1">
          <mxGeometry x="4240" y="150" width="90" height="40" as="geometry" />
        </mxCell>
        <mxCell id="yOq8okk44wxxe_2aPgNt-18" value="" style="shape=table;startSize=0;container=1;collapsible=0;childLayout=tableLayout;" vertex="1" parent="1">
          <mxGeometry x="3920" y="200" width="400" height="160" as="geometry" />
        </mxCell>
        <mxCell id="yOq8okk44wxxe_2aPgNt-31" style="shape=tableRow;horizontal=0;startSize=0;swimlaneHead=0;swimlaneBody=0;strokeColor=inherit;top=0;left=0;bottom=0;right=0;collapsible=0;dropTarget=0;fillColor=none;points=[[0,0.5],[1,0.5]];portConstraint=eastwest;" vertex="1" parent="yOq8okk44wxxe_2aPgNt-18">
          <mxGeometry width="400" height="40" as="geometry" />
        </mxCell>
        <mxCell id="yOq8okk44wxxe_2aPgNt-32" value="&lt;b&gt;&lt;u&gt;Secretholder&lt;/u&gt;&lt;/b&gt;" style="shape=partialRectangle;html=1;whiteSpace=wrap;connectable=0;strokeColor=inherit;overflow=hidden;fillColor=none;top=0;left=0;bottom=0;right=0;pointerEvents=1;" vertex="1" parent="yOq8okk44wxxe_2aPgNt-31">
          <mxGeometry width="320" height="40" as="geometry">
            <mxRectangle width="320" height="40" as="alternateBounds" />
          </mxGeometry>
        </mxCell>
        <mxCell id="yOq8okk44wxxe_2aPgNt-33" value="&lt;b&gt;&lt;u&gt;Status&lt;/u&gt;&lt;/b&gt;" style="shape=partialRectangle;html=1;whiteSpace=wrap;connectable=0;strokeColor=inherit;overflow=hidden;fillColor=none;top=0;left=0;bottom=0;right=0;pointerEvents=1;" vertex="1" parent="yOq8okk44wxxe_2aPgNt-31">
          <mxGeometry x="320" width="80" height="40" as="geometry">
            <mxRectangle width="80" height="40" as="alternateBounds" />
          </mxGeometry>
        </mxCell>
        <mxCell id="yOq8okk44wxxe_2aPgNt-19" value="" style="shape=tableRow;horizontal=0;startSize=0;swimlaneHead=0;swimlaneBody=0;strokeColor=inherit;top=0;left=0;bottom=0;right=0;collapsible=0;dropTarget=0;fillColor=none;points=[[0,0.5],[1,0.5]];portConstraint=eastwest;" vertex="1" parent="yOq8okk44wxxe_2aPgNt-18">
          <mxGeometry y="40" width="400" height="40" as="geometry" />
        </mxCell>
        <mxCell id="yOq8okk44wxxe_2aPgNt-20" value="Secretholder A" style="shape=partialRectangle;html=1;whiteSpace=wrap;connectable=0;strokeColor=inherit;overflow=hidden;fillColor=none;top=0;left=0;bottom=0;right=0;pointerEvents=1;" vertex="1" parent="yOq8okk44wxxe_2aPgNt-19">
          <mxGeometry width="320" height="40" as="geometry">
            <mxRectangle width="320" height="40" as="alternateBounds" />
          </mxGeometry>
        </mxCell>
        <mxCell id="yOq8okk44wxxe_2aPgNt-21" value="?" style="shape=partialRectangle;html=1;whiteSpace=wrap;connectable=0;strokeColor=inherit;overflow=hidden;fillColor=none;top=0;left=0;bottom=0;right=0;pointerEvents=1;" vertex="1" parent="yOq8okk44wxxe_2aPgNt-19">
          <mxGeometry x="320" width="80" height="40" as="geometry">
            <mxRectangle width="80" height="40" as="alternateBounds" />
          </mxGeometry>
        </mxCell>
        <mxCell id="yOq8okk44wxxe_2aPgNt-22" value="" style="shape=tableRow;horizontal=0;startSize=0;swimlaneHead=0;swimlaneBody=0;strokeColor=inherit;top=0;left=0;bottom=0;right=0;collapsible=0;dropTarget=0;fillColor=none;points=[[0,0.5],[1,0.5]];portConstraint=eastwest;" vertex="1" parent="yOq8okk44wxxe_2aPgNt-18">
          <mxGeometry y="80" width="400" height="40" as="geometry" />
        </mxCell>
        <mxCell id="yOq8okk44wxxe_2aPgNt-23" value="Secretholder B" style="shape=partialRectangle;html=1;whiteSpace=wrap;connectable=0;strokeColor=inherit;overflow=hidden;fillColor=none;top=0;left=0;bottom=0;right=0;pointerEvents=1;" vertex="1" parent="yOq8okk44wxxe_2aPgNt-22">
          <mxGeometry width="320" height="40" as="geometry">
            <mxRectangle width="320" height="40" as="alternateBounds" />
          </mxGeometry>
        </mxCell>
        <mxCell id="yOq8okk44wxxe_2aPgNt-24" value="?" style="shape=partialRectangle;html=1;whiteSpace=wrap;connectable=0;strokeColor=inherit;overflow=hidden;fillColor=none;top=0;left=0;bottom=0;right=0;pointerEvents=1;" vertex="1" parent="yOq8okk44wxxe_2aPgNt-22">
          <mxGeometry x="320" width="80" height="40" as="geometry">
            <mxRectangle width="80" height="40" as="alternateBounds" />
          </mxGeometry>
        </mxCell>
        <mxCell id="yOq8okk44wxxe_2aPgNt-25" value="" style="shape=tableRow;horizontal=0;startSize=0;swimlaneHead=0;swimlaneBody=0;strokeColor=inherit;top=0;left=0;bottom=0;right=0;collapsible=0;dropTarget=0;fillColor=none;points=[[0,0.5],[1,0.5]];portConstraint=eastwest;" vertex="1" parent="yOq8okk44wxxe_2aPgNt-18">
          <mxGeometry y="120" width="400" height="40" as="geometry" />
        </mxCell>
        <mxCell id="yOq8okk44wxxe_2aPgNt-26" value="Secretholder C" style="shape=partialRectangle;html=1;whiteSpace=wrap;connectable=0;strokeColor=inherit;overflow=hidden;fillColor=none;top=0;left=0;bottom=0;right=0;pointerEvents=1;" vertex="1" parent="yOq8okk44wxxe_2aPgNt-25">
          <mxGeometry width="320" height="40" as="geometry">
            <mxRectangle width="320" height="40" as="alternateBounds" />
          </mxGeometry>
        </mxCell>
        <mxCell id="yOq8okk44wxxe_2aPgNt-27" value="?" style="shape=partialRectangle;html=1;whiteSpace=wrap;connectable=0;strokeColor=inherit;overflow=hidden;fillColor=none;top=0;left=0;bottom=0;right=0;pointerEvents=1;" vertex="1" parent="yOq8okk44wxxe_2aPgNt-25">
          <mxGeometry x="320" width="80" height="40" as="geometry">
            <mxRectangle width="80" height="40" as="alternateBounds" />
          </mxGeometry>
        </mxCell>
        <mxCell id="yOq8okk44wxxe_2aPgNt-35" value="" style="rounded=0;whiteSpace=wrap;html=1;fillColor=none;" vertex="1" parent="1">
          <mxGeometry x="5800" y="40" width="480" height="480" as="geometry" />
        </mxCell>
        <mxCell id="yOq8okk44wxxe_2aPgNt-36" value="" style="rounded=0;whiteSpace=wrap;html=1;fillColor=none;" vertex="1" parent="1">
          <mxGeometry x="5820" y="125" width="440" height="385" as="geometry" />
        </mxCell>
        <mxCell id="yOq8okk44wxxe_2aPgNt-37" value="&lt;u&gt;New election Secret-holders invite page&lt;/u&gt;" style="text;strokeColor=none;fillColor=none;html=1;fontSize=24;fontStyle=1;verticalAlign=middle;align=center;" vertex="1" parent="1">
          <mxGeometry x="5800" y="-30" width="480" height="40" as="geometry" />
        </mxCell>
        <mxCell id="yOq8okk44wxxe_2aPgNt-38" value="Logo?" style="rounded=0;whiteSpace=wrap;html=1;" vertex="1" parent="1">
          <mxGeometry x="5810" y="50" width="100" height="60" as="geometry" />
        </mxCell>
        <mxCell id="yOq8okk44wxxe_2aPgNt-39" value="Website Name" style="text;strokeColor=none;fillColor=none;html=1;fontSize=24;fontStyle=1;verticalAlign=middle;align=center;" vertex="1" parent="1">
          <mxGeometry x="5910" y="60" width="270" height="40" as="geometry" />
        </mxCell>
        <mxCell id="yOq8okk44wxxe_2aPgNt-40" value="Hello, User" style="text;html=1;align=center;verticalAlign=middle;whiteSpace=wrap;rounded=0;fillColor=none;strokeColor=#000000;" vertex="1" parent="1">
          <mxGeometry x="6180" y="55" width="80" height="50" as="geometry" />
        </mxCell>
        <mxCell id="yOq8okk44wxxe_2aPgNt-41" value="&lt;u&gt;Create New Election: Secretholders&lt;/u&gt;" style="text;strokeColor=none;fillColor=none;html=1;fontSize=24;fontStyle=1;verticalAlign=middle;align=center;" vertex="1" parent="1">
          <mxGeometry x="5830" y="150" width="400" height="40" as="geometry" />
        </mxCell>
        <mxCell id="yOq8okk44wxxe_2aPgNt-42" value="" style="rounded=0;whiteSpace=wrap;html=1;fillColor=none;" vertex="1" parent="1">
          <mxGeometry x="5830" y="215" width="360" height="20" as="geometry" />
        </mxCell>
        <mxCell id="yOq8okk44wxxe_2aPgNt-43" value="Invite secretholder: (email)" style="text;html=1;align=center;verticalAlign=middle;whiteSpace=wrap;rounded=0;" vertex="1" parent="1">
          <mxGeometry x="5830" y="190" width="150" height="30" as="geometry" />
        </mxCell>
        <mxCell id="yOq8okk44wxxe_2aPgNt-46" value="Create Election" style="rounded=1;whiteSpace=wrap;html=1;" vertex="1" parent="1">
          <mxGeometry x="5850" y="450" width="120" height="40" as="geometry" />
        </mxCell>
        <mxCell id="yOq8okk44wxxe_2aPgNt-49" value="Delete Election Draft" style="rounded=1;whiteSpace=wrap;html=1;" vertex="1" parent="1">
          <mxGeometry x="6122" y="450" width="120" height="40" as="geometry" />
        </mxCell>
        <mxCell id="yOq8okk44wxxe_2aPgNt-50" value="Back" style="rounded=1;whiteSpace=wrap;html=1;" vertex="1" parent="1">
          <mxGeometry x="5985" y="450" width="120" height="40" as="geometry" />
        </mxCell>
        <mxCell id="yOq8okk44wxxe_2aPgNt-51" value="Invite" style="rounded=0;whiteSpace=wrap;html=1;fillColor=none;" vertex="1" parent="1">
          <mxGeometry x="5830" y="240" width="70" height="20" as="geometry" />
        </mxCell>
        <mxCell id="yOq8okk44wxxe_2aPgNt-65" value="" style="rounded=0;whiteSpace=wrap;html=1;fillColor=none;" vertex="1" parent="1">
          <mxGeometry x="6440" y="40" width="480" height="480" as="geometry" />
        </mxCell>
        <mxCell id="yOq8okk44wxxe_2aPgNt-66" value="" style="rounded=0;whiteSpace=wrap;html=1;fillColor=none;" vertex="1" parent="1">
          <mxGeometry x="6460" y="125" width="440" height="375" as="geometry" />
        </mxCell>
        <mxCell id="yOq8okk44wxxe_2aPgNt-67" value="&lt;u&gt;Election Results Page&lt;/u&gt;" style="text;strokeColor=none;fillColor=none;html=1;fontSize=24;fontStyle=1;verticalAlign=middle;align=center;" vertex="1" parent="1">
          <mxGeometry x="6440" y="-30" width="480" height="40" as="geometry" />
        </mxCell>
        <mxCell id="yOq8okk44wxxe_2aPgNt-68" value="Logo?" style="rounded=0;whiteSpace=wrap;html=1;" vertex="1" parent="1">
          <mxGeometry x="6450" y="50" width="100" height="60" as="geometry" />
        </mxCell>
        <mxCell id="yOq8okk44wxxe_2aPgNt-69" value="Website Name" style="text;strokeColor=none;fillColor=none;html=1;fontSize=24;fontStyle=1;verticalAlign=middle;align=center;" vertex="1" parent="1">
          <mxGeometry x="6550" y="60" width="270" height="40" as="geometry" />
        </mxCell>
        <mxCell id="yOq8okk44wxxe_2aPgNt-70" value="&lt;u&gt;Election Name&lt;/u&gt;" style="text;strokeColor=none;fillColor=none;html=1;fontSize=24;fontStyle=1;verticalAlign=middle;align=center;" vertex="1" parent="1">
          <mxGeometry x="6480" y="150" width="193" height="40" as="geometry" />
        </mxCell>
        <mxCell id="yOq8okk44wxxe_2aPgNt-72" value="&lt;div style=&quot;&quot;&gt;&lt;span style=&quot;font-size: 18px;&quot;&gt;&lt;b&gt;...&lt;/b&gt;&lt;/span&gt;&lt;/div&gt;" style="text;html=1;align=center;verticalAlign=middle;whiteSpace=wrap;rounded=0;strokeColor=none;" vertex="1" parent="1">
          <mxGeometry x="6480" y="413" width="400" height="40" as="geometry" />
        </mxCell>
        <mxCell id="yOq8okk44wxxe_2aPgNt-73" value="Hello, User" style="text;html=1;align=center;verticalAlign=middle;whiteSpace=wrap;rounded=0;fillColor=none;strokeColor=#000000;" vertex="1" parent="1">
          <mxGeometry x="6820" y="55" width="80" height="50" as="geometry" />
        </mxCell>
        <mxCell id="yOq8okk44wxxe_2aPgNt-76" value="Report Election Issue" style="rounded=1;whiteSpace=wrap;html=1;" vertex="1" parent="1">
          <mxGeometry x="6760" y="150" width="120" height="40" as="geometry" />
        </mxCell>
        <mxCell id="yOq8okk44wxxe_2aPgNt-77" value="" style="shape=table;startSize=0;container=1;collapsible=0;childLayout=tableLayout;" vertex="1" parent="1">
          <mxGeometry x="6480" y="200" width="390" height="213" as="geometry" />
        </mxCell>
        <mxCell id="yOq8okk44wxxe_2aPgNt-94" style="shape=tableRow;horizontal=0;startSize=0;swimlaneHead=0;swimlaneBody=0;strokeColor=inherit;top=0;left=0;bottom=0;right=0;collapsible=0;dropTarget=0;fillColor=none;points=[[0,0.5],[1,0.5]];portConstraint=eastwest;" vertex="1" parent="yOq8okk44wxxe_2aPgNt-77">
          <mxGeometry width="390" height="53" as="geometry" />
        </mxCell>
        <mxCell id="yOq8okk44wxxe_2aPgNt-97" value="&lt;b&gt;&lt;u&gt;Rank&lt;/u&gt;&lt;/b&gt;" style="shape=partialRectangle;html=1;whiteSpace=wrap;connectable=0;strokeColor=inherit;overflow=hidden;fillColor=none;top=0;left=0;bottom=0;right=0;pointerEvents=1;" vertex="1" parent="yOq8okk44wxxe_2aPgNt-94">
          <mxGeometry width="60" height="53" as="geometry">
            <mxRectangle width="60" height="53" as="alternateBounds" />
          </mxGeometry>
        </mxCell>
        <mxCell id="yOq8okk44wxxe_2aPgNt-95" value="&lt;b&gt;&lt;u&gt;Candidate&lt;/u&gt;&lt;/b&gt;" style="shape=partialRectangle;html=1;whiteSpace=wrap;connectable=0;strokeColor=inherit;overflow=hidden;fillColor=none;top=0;left=0;bottom=0;right=0;pointerEvents=1;" vertex="1" parent="yOq8okk44wxxe_2aPgNt-94">
          <mxGeometry x="60" width="270" height="53" as="geometry">
            <mxRectangle width="270" height="53" as="alternateBounds" />
          </mxGeometry>
        </mxCell>
        <mxCell id="yOq8okk44wxxe_2aPgNt-96" value="&lt;b&gt;&lt;u&gt;Votes&lt;/u&gt;&lt;/b&gt;" style="shape=partialRectangle;html=1;whiteSpace=wrap;connectable=0;strokeColor=inherit;overflow=hidden;fillColor=none;top=0;left=0;bottom=0;right=0;pointerEvents=1;" vertex="1" parent="yOq8okk44wxxe_2aPgNt-94">
          <mxGeometry x="330" width="60" height="53" as="geometry">
            <mxRectangle width="60" height="53" as="alternateBounds" />
          </mxGeometry>
        </mxCell>
        <mxCell id="yOq8okk44wxxe_2aPgNt-78" value="" style="shape=tableRow;horizontal=0;startSize=0;swimlaneHead=0;swimlaneBody=0;strokeColor=inherit;top=0;left=0;bottom=0;right=0;collapsible=0;dropTarget=0;fillColor=none;points=[[0,0.5],[1,0.5]];portConstraint=eastwest;" vertex="1" parent="yOq8okk44wxxe_2aPgNt-77">
          <mxGeometry y="53" width="390" height="53" as="geometry" />
        </mxCell>
        <mxCell id="yOq8okk44wxxe_2aPgNt-98" value="1" style="shape=partialRectangle;html=1;whiteSpace=wrap;connectable=0;strokeColor=inherit;overflow=hidden;fillColor=none;top=0;left=0;bottom=0;right=0;pointerEvents=1;" vertex="1" parent="yOq8okk44wxxe_2aPgNt-78">
          <mxGeometry width="60" height="53" as="geometry">
            <mxRectangle width="60" height="53" as="alternateBounds" />
          </mxGeometry>
        </mxCell>
        <mxCell id="yOq8okk44wxxe_2aPgNt-79" value="Candidate A" style="shape=partialRectangle;html=1;whiteSpace=wrap;connectable=0;strokeColor=inherit;overflow=hidden;fillColor=none;top=0;left=0;bottom=0;right=0;pointerEvents=1;" vertex="1" parent="yOq8okk44wxxe_2aPgNt-78">
          <mxGeometry x="60" width="270" height="53" as="geometry">
            <mxRectangle width="270" height="53" as="alternateBounds" />
          </mxGeometry>
        </mxCell>
        <mxCell id="yOq8okk44wxxe_2aPgNt-80" value="?" style="shape=partialRectangle;html=1;whiteSpace=wrap;connectable=0;strokeColor=inherit;overflow=hidden;fillColor=none;top=0;left=0;bottom=0;right=0;pointerEvents=1;" vertex="1" parent="yOq8okk44wxxe_2aPgNt-78">
          <mxGeometry x="330" width="60" height="53" as="geometry">
            <mxRectangle width="60" height="53" as="alternateBounds" />
          </mxGeometry>
        </mxCell>
        <mxCell id="yOq8okk44wxxe_2aPgNt-81" value="" style="shape=tableRow;horizontal=0;startSize=0;swimlaneHead=0;swimlaneBody=0;strokeColor=inherit;top=0;left=0;bottom=0;right=0;collapsible=0;dropTarget=0;fillColor=none;points=[[0,0.5],[1,0.5]];portConstraint=eastwest;" vertex="1" parent="yOq8okk44wxxe_2aPgNt-77">
          <mxGeometry y="106" width="390" height="54" as="geometry" />
        </mxCell>
        <mxCell id="yOq8okk44wxxe_2aPgNt-99" value="2" style="shape=partialRectangle;html=1;whiteSpace=wrap;connectable=0;strokeColor=inherit;overflow=hidden;fillColor=none;top=0;left=0;bottom=0;right=0;pointerEvents=1;" vertex="1" parent="yOq8okk44wxxe_2aPgNt-81">
          <mxGeometry width="60" height="54" as="geometry">
            <mxRectangle width="60" height="54" as="alternateBounds" />
          </mxGeometry>
        </mxCell>
        <mxCell id="yOq8okk44wxxe_2aPgNt-82" value="Candidate B" style="shape=partialRectangle;html=1;whiteSpace=wrap;connectable=0;strokeColor=inherit;overflow=hidden;fillColor=none;top=0;left=0;bottom=0;right=0;pointerEvents=1;" vertex="1" parent="yOq8okk44wxxe_2aPgNt-81">
          <mxGeometry x="60" width="270" height="54" as="geometry">
            <mxRectangle width="270" height="54" as="alternateBounds" />
          </mxGeometry>
        </mxCell>
        <mxCell id="yOq8okk44wxxe_2aPgNt-83" value="?" style="shape=partialRectangle;html=1;whiteSpace=wrap;connectable=0;strokeColor=inherit;overflow=hidden;fillColor=none;top=0;left=0;bottom=0;right=0;pointerEvents=1;" vertex="1" parent="yOq8okk44wxxe_2aPgNt-81">
          <mxGeometry x="330" width="60" height="54" as="geometry">
            <mxRectangle width="60" height="54" as="alternateBounds" />
          </mxGeometry>
        </mxCell>
        <mxCell id="yOq8okk44wxxe_2aPgNt-84" value="" style="shape=tableRow;horizontal=0;startSize=0;swimlaneHead=0;swimlaneBody=0;strokeColor=inherit;top=0;left=0;bottom=0;right=0;collapsible=0;dropTarget=0;fillColor=none;points=[[0,0.5],[1,0.5]];portConstraint=eastwest;" vertex="1" parent="yOq8okk44wxxe_2aPgNt-77">
          <mxGeometry y="160" width="390" height="53" as="geometry" />
        </mxCell>
        <mxCell id="yOq8okk44wxxe_2aPgNt-100" value="3" style="shape=partialRectangle;html=1;whiteSpace=wrap;connectable=0;strokeColor=inherit;overflow=hidden;fillColor=none;top=0;left=0;bottom=0;right=0;pointerEvents=1;" vertex="1" parent="yOq8okk44wxxe_2aPgNt-84">
          <mxGeometry width="60" height="53" as="geometry">
            <mxRectangle width="60" height="53" as="alternateBounds" />
          </mxGeometry>
        </mxCell>
        <mxCell id="yOq8okk44wxxe_2aPgNt-85" value="Candidate C" style="shape=partialRectangle;html=1;whiteSpace=wrap;connectable=0;strokeColor=inherit;overflow=hidden;fillColor=none;top=0;left=0;bottom=0;right=0;pointerEvents=1;" vertex="1" parent="yOq8okk44wxxe_2aPgNt-84">
          <mxGeometry x="60" width="270" height="53" as="geometry">
            <mxRectangle width="270" height="53" as="alternateBounds" />
          </mxGeometry>
        </mxCell>
        <mxCell id="yOq8okk44wxxe_2aPgNt-86" value="?" style="shape=partialRectangle;html=1;whiteSpace=wrap;connectable=0;strokeColor=inherit;overflow=hidden;fillColor=none;top=0;left=0;bottom=0;right=0;pointerEvents=1;" vertex="1" parent="yOq8okk44wxxe_2aPgNt-84">
          <mxGeometry x="330" width="60" height="53" as="geometry">
            <mxRectangle width="60" height="53" as="alternateBounds" />
          </mxGeometry>
        </mxCell>
        <mxCell id="yOq8okk44wxxe_2aPgNt-101" value="" style="rounded=0;whiteSpace=wrap;html=1;fillColor=none;" vertex="1" parent="1">
          <mxGeometry x="7080" y="40" width="480" height="480" as="geometry" />
        </mxCell>
        <mxCell id="yOq8okk44wxxe_2aPgNt-102" value="" style="rounded=0;whiteSpace=wrap;html=1;fillColor=none;" vertex="1" parent="1">
          <mxGeometry x="7100" y="125" width="440" height="375" as="geometry" />
        </mxCell>
        <mxCell id="yOq8okk44wxxe_2aPgNt-103" value="&lt;u&gt;Election Fault Report Page&lt;/u&gt;" style="text;strokeColor=none;fillColor=none;html=1;fontSize=24;fontStyle=1;verticalAlign=middle;align=center;" vertex="1" parent="1">
          <mxGeometry x="7080" y="-30" width="480" height="40" as="geometry" />
        </mxCell>
        <mxCell id="yOq8okk44wxxe_2aPgNt-104" value="Logo?" style="rounded=0;whiteSpace=wrap;html=1;" vertex="1" parent="1">
          <mxGeometry x="7090" y="50" width="100" height="60" as="geometry" />
        </mxCell>
        <mxCell id="yOq8okk44wxxe_2aPgNt-105" value="Website Name" style="text;strokeColor=none;fillColor=none;html=1;fontSize=24;fontStyle=1;verticalAlign=middle;align=center;" vertex="1" parent="1">
          <mxGeometry x="7190" y="60" width="270" height="40" as="geometry" />
        </mxCell>
        <mxCell id="yOq8okk44wxxe_2aPgNt-106" value="&lt;u&gt;Election Name: Fault Report&lt;/u&gt;" style="text;strokeColor=none;fillColor=none;html=1;fontSize=24;fontStyle=1;verticalAlign=middle;align=center;" vertex="1" parent="1">
          <mxGeometry x="7120" y="150" width="320" height="40" as="geometry" />
        </mxCell>
        <mxCell id="yOq8okk44wxxe_2aPgNt-108" value="Hello, User" style="text;html=1;align=center;verticalAlign=middle;whiteSpace=wrap;rounded=0;fillColor=none;strokeColor=#000000;" vertex="1" parent="1">
          <mxGeometry x="7460" y="55" width="80" height="50" as="geometry" />
        </mxCell>
        <mxCell id="yOq8okk44wxxe_2aPgNt-127" value="" style="rounded=0;whiteSpace=wrap;html=1;fillColor=none;" vertex="1" parent="1">
          <mxGeometry x="7120" y="227.5" width="360" height="20" as="geometry" />
        </mxCell>
        <mxCell id="yOq8okk44wxxe_2aPgNt-128" value="Report Type" style="text;html=1;align=center;verticalAlign=middle;whiteSpace=wrap;rounded=0;" vertex="1" parent="1">
          <mxGeometry x="7120" y="202.5" width="100" height="30" as="geometry" />
        </mxCell>
        <mxCell id="yOq8okk44wxxe_2aPgNt-129" value="" style="rounded=0;whiteSpace=wrap;html=1;fillColor=none;" vertex="1" parent="1">
          <mxGeometry x="7120" y="277.5" width="360" height="65" as="geometry" />
        </mxCell>
        <mxCell id="yOq8okk44wxxe_2aPgNt-130" value="Report Info" style="text;html=1;align=center;verticalAlign=middle;whiteSpace=wrap;rounded=0;" vertex="1" parent="1">
          <mxGeometry x="7120" y="252.5" width="90" height="30" as="geometry" />
        </mxCell>
        <mxCell id="yOq8okk44wxxe_2aPgNt-133" value="Send Report&lt;span style=&quot;color: rgba(0, 0, 0, 0); font-family: monospace; font-size: 0px; text-align: start; text-wrap-mode: nowrap;&quot;&gt;%3CmxGraphModel%3E%3Croot%3E%3CmxCell%20id%3D%220%22%2F%3E%3CmxCell%20id%3D%221%22%20parent%3D%220%22%2F%3E%3CmxCell%20id%3D%222%22%20value%3D%22%22%20style%3D%22rounded%3D0%3BwhiteSpace%3Dwrap%3Bhtml%3D1%3BfillColor%3Dnone%3B%22%20vertex%3D%221%22%20parent%3D%221%22%3E%3CmxGeometry%20x%3D%225190%22%20y%3D%22215%22%20width%3D%22360%22%20height%3D%2220%22%20as%3D%22geometry%22%2F%3E%3C%2FmxCell%3E%3CmxCell%20id%3D%223%22%20value%3D%22Candidate%20Name%22%20style%3D%22text%3Bhtml%3D1%3Balign%3Dcenter%3BverticalAlign%3Dmiddle%3BwhiteSpace%3Dwrap%3Brounded%3D0%3B%22%20vertex%3D%221%22%20parent%3D%221%22%3E%3CmxGeometry%20x%3D%225190%22%20y%3D%22190%22%20width%3D%22100%22%20height%3D%2230%22%20as%3D%22geometry%22%2F%3E%3C%2FmxCell%3E%3CmxCell%20id%3D%224%22%20value%3D%22%22%20style%3D%22rounded%3D0%3BwhiteSpace%3Dwrap%3Bhtml%3D1%3BfillColor%3Dnone%3B%22%20vertex%3D%221%22%20parent%3D%221%22%3E%3CmxGeometry%20x%3D%225190%22%20y%3D%22265%22%20width%3D%22360%22%20height%3D%2265%22%20as%3D%22geometry%22%2F%3E%3C%2FmxCell%3E%3CmxCell%20id%3D%225%22%20value%3D%22Candidate%20Information%22%20style%3D%22text%3Bhtml%3D1%3Balign%3Dcenter%3BverticalAlign%3Dmiddle%3BwhiteSpace%3Dwrap%3Brounded%3D0%3B%22%20vertex%3D%221%22%20parent%3D%221%22%3E%3CmxGeometry%20x%3D%225190%22%20y%3D%22240%22%20width%3D%22130%22%20height%3D%2230%22%20as%3D%22geometry%22%2F%3E%3C%2FmxCell%3E%3CmxCell%20id%3D%226%22%20value%3D%22%26lt%3Bb%26gt%3B%26lt%3Bfont%20style%3D%26quot%3Bfont-size%3A%2018px%3B%26quot%3B%26gt%3B...%26lt%3B%2Ffont%26gt%3B%26lt%3B%2Fb%26gt%3B%22%20style%3D%22rounded%3D0%3BwhiteSpace%3Dwrap%3Bhtml%3D1%3BfillColor%3Dnone%3Balign%3Dleft%3B%22%20vertex%3D%221%22%20parent%3D%221%22%3E%3CmxGeometry%20x%3D%225190%22%20y%3D%22357.5%22%20width%3D%22360%22%20height%3D%2220%22%20as%3D%22geometry%22%2F%3E%3C%2FmxCell%3E%3CmxCell%20id%3D%227%22%20value%3D%22Set%20Candidate%20Colour%22%20style%3D%22text%3Bhtml%3D1%3Balign%3Dcenter%3BverticalAlign%3Dmiddle%3BwhiteSpace%3Dwrap%3Brounded%3D0%3B%22%20vertex%3D%221%22%20parent%3D%221%22%3E%3CmxGeometry%20x%3D%225190%22%20y%3D%22332.5%22%20width%3D%22120%22%20height%3D%2230%22%20as%3D%22geometry%22%2F%3E%3C%2FmxCell%3E%3CmxCell%20id%3D%228%22%20value%3D%22Add%20Candidate%22%20style%3D%22rounded%3D0%3BwhiteSpace%3Dwrap%3Bhtml%3D1%3BfillColor%3Dnone%3B%22%20vertex%3D%221%22%20parent%3D%221%22%3E%3CmxGeometry%20x%3D%225340%22%20y%3D%22390%22%20width%3D%22120%22%20height%3D%2230%22%20as%3D%22geometry%22%2F%3E%3C%2FmxCell%3E%3C%2Froot%3E%3C%2FmxGraphModel%3E&lt;/span&gt;" style="rounded=0;whiteSpace=wrap;html=1;fillColor=none;" vertex="1" parent="1">
          <mxGeometry x="7160" y="400" width="120" height="30" as="geometry" />
        </mxCell>
        <mxCell id="yOq8okk44wxxe_2aPgNt-141" value="Cancel Report" style="rounded=0;whiteSpace=wrap;html=1;fillColor=none;" vertex="1" parent="1">
          <mxGeometry x="7323" y="400" width="120" height="30" as="geometry" />
        </mxCell>
      </root>
    </mxGraphModel>
  </diagram>
</mxfile>
